<?xml version="1.0" encoding="UTF-8"?>
<!--Generator: Apple Native CoreSVG 341-->
<!DOCTYPE svg
PUBLIC "-//W3C//DTD SVG 1.1//EN"
       "http://www.w3.org/Graphics/SVG/1.1/DTD/svg11.dtd">
<svg version="1.1" xmlns="http://www.w3.org/2000/svg" xmlns:xlink="http://www.w3.org/1999/xlink" viewBox="0 0 42.799 45.9805">
 <g>
  <rect height="45.9805" opacity="0" width="42.799" x="0" y="0"/>
  <path d="M9.79938 45.9805L32.6334 45.9805C34.7173 45.9805 35.958 44.984 35.958 43.3483C35.958 38.8872 30.234 32.7637 21.2164 32.7637C12.2153 32.7637 6.49142 38.8872 6.49142 43.3483C6.49142 44.984 7.71539 45.9805 9.79938 45.9805ZM21.2164 29.7174C25.0593 29.7174 28.3086 26.3106 28.3086 21.9405C28.3086 17.6491 25.0271 14.3688 21.2164 14.3688C17.4056 14.3688 14.133 17.7157 14.1408 21.9738C14.1408 26.3106 17.3901 29.7174 21.2164 29.7174Z" fill="#0088ff"/>
  <path d="M2.40651 30.3344C2.78048 31.2444 3.76256 31.8858 4.87448 31.8858C8.34679 31.8858 10.4574 27.6932 10.4574 21.9815C10.4574 16.2455 8.34679 12.0773 4.87448 12.0773C3.76256 12.0773 2.78048 12.7021 2.40651 13.6287C2.1735 14.2478 2.78712 14.8448 3.35079 14.6184C3.69484 14.503 3.88014 14.4142 4.3629 14.4142C6.32941 14.4142 7.80314 17.9188 7.80314 21.9815C7.80314 26.0365 6.32941 29.5245 4.3629 29.5245C3.88014 29.5245 3.69484 29.4435 3.35079 29.3203C2.78712 29.1106 2.1735 29.7153 2.40651 30.3344ZM40.0429 30.3267C40.2759 29.7075 39.6456 29.1028 39.0986 29.3125C38.7379 29.4357 38.5526 29.5167 38.0698 29.5167C36.12 29.5167 34.6463 26.0288 34.6463 21.9738C34.6463 17.911 36.12 14.4064 38.0698 14.4064C38.5526 14.4064 38.7379 14.4952 39.0986 14.6106C39.6456 14.837 40.2759 14.24 40.0429 13.6209C39.6523 12.6943 38.6868 12.0695 37.5749 12.0695C34.1026 12.0695 31.992 16.2455 31.992 21.9738C31.992 27.6854 34.1026 31.878 37.5749 31.878C38.6868 31.878 39.6523 31.2366 40.0429 30.3267ZM29.5693 2.61792C28.9668 2.38492 28.3531 3.01519 28.5717 3.56221C28.6949 3.9229 28.7837 4.12485 28.7837 4.59097C28.7837 6.54082 25.2714 8.01455 21.2164 8.01455C17.1614 8.01455 13.6657 6.54082 13.6657 4.59097C13.6657 4.12485 13.7545 3.9229 13.8776 3.56221C14.0796 3.01519 13.4826 2.38492 12.8801 2.61792C11.9535 3.00855 11.3288 3.97398 11.3288 5.08589C11.3288 8.57485 15.5047 10.6688 21.2164 10.6688C26.9447 10.6688 31.1206 8.57485 31.1206 5.08589C31.1206 3.97398 30.4959 3.00855 29.5693 2.61792Z" fill="#0088ff"/>
  <path d="M0.233558 27.376C0.63971 27.8388 1.26559 28.1562 1.96583 28.1562C3.99996 28.1562 5.46593 25.657 5.46593 21.9815C5.46593 18.2739 3.99996 15.7903 1.96583 15.7903C1.26559 15.7903 0.63971 16.1166 0.233558 16.5793C-0.325719 17.2273 0.210267 18.0507 0.885996 17.8332C1.11573 17.7422 1.24669 17.7011 1.40319 17.7011C2.46862 17.7011 3.32648 19.6455 3.32648 21.9815C3.32648 24.3176 2.46862 26.262 1.40319 26.262C1.24669 26.262 1.11573 26.2209 0.885996 26.1221C0.210267 25.9046-0.325719 26.7357 0.233558 27.376ZM42.2158 27.3683C42.7751 26.728 42.2391 25.8969 41.5634 26.1144C41.3337 26.2131 41.1861 26.2542 41.0296 26.2542C39.9808 26.2542 39.1229 24.3099 39.1229 21.9738C39.1229 19.6377 39.9808 17.6934 41.0296 17.6934C41.1861 17.6934 41.3337 17.7344 41.5634 17.8332C42.2391 18.0429 42.7751 17.2196 42.2158 16.5715C41.793 16.1088 41.1838 15.7825 40.4836 15.7825C38.4494 15.7825 36.9835 18.2661 36.9835 21.9738C36.9835 25.6493 38.4494 28.1484 40.4836 28.1484C41.1838 28.1484 41.793 27.831 42.2158 27.3683ZM26.6186 0.44497C25.9706-0.0976562 25.1472 0.421679 25.3736 1.09741C25.4557 1.32715 25.4968 1.47475 25.4968 1.63125C25.4968 2.68003 23.5525 3.55454 21.2164 3.55454C18.8803 3.55454 16.9359 2.68003 16.9359 1.63125C16.9359 1.47475 16.977 1.32715 17.0758 1.09741C17.3022 0.421679 16.4788-0.0976562 15.8141 0.44497C15.3591 0.884423 15.0418 1.477 15.0418 2.17724C15.0418 4.21138 17.5331 5.67734 21.2164 5.67734C24.9085 5.67734 27.4076 4.21138 27.4076 2.17724C27.4076 1.477 27.0903 0.884423 26.6186 0.44497Z" fill="#0088ff"/>
 </g>
</svg>
