<?xml version="1.0" encoding="UTF-8"?>
<!--Generator: Apple Native CoreSVG 341-->
<!DOCTYPE svg
PUBLIC "-//W3C//DTD SVG 1.1//EN"
       "http://www.w3.org/Graphics/SVG/1.1/DTD/svg11.dtd">
<svg version="1.1" xmlns="http://www.w3.org/2000/svg" xmlns:xlink="http://www.w3.org/1999/xlink" viewBox="0 0 67.6389 73.9829">
 <defs>
  <linearGradient id="gradient1" x1="5" y1="0.270334" x2="5" y2="73.9829" gradientUnits="userSpaceOnUse">
   <stop offset="0" stop-color="#3fa5ff" stop-opacity="1"/>
   <stop offset="1" stop-color="#0088ff" stop-opacity="1"/>
  </linearGradient>
  <linearGradient id="gradient2" x1="5" y1="0.270334" x2="5" y2="73.9829" gradientUnits="userSpaceOnUse">
   <stop offset="0" stop-color="#3fa5ff" stop-opacity="1"/>
   <stop offset="1" stop-color="#0088ff" stop-opacity="1"/>
  </linearGradient>
  <linearGradient id="gradient3" x1="5" y1="0.270334" x2="5" y2="73.9829" gradientUnits="userSpaceOnUse">
   <stop offset="0" stop-color="#3fa5ff" stop-opacity="1"/>
   <stop offset="1" stop-color="#0088ff" stop-opacity="1"/>
  </linearGradient>
 </defs>
 <g>
  <rect height="73.9829" opacity="0" width="67.6389" x="0" y="0"/>
  <path d="M14.5966 73.9829L52.6673 73.9829C55.8276 73.9829 57.7407 72.4349 57.7407 69.9326C57.7407 62.5995 48.4135 52.5209 33.6275 52.5209C18.8414 52.5209 9.52314 62.5995 9.52314 69.9326C9.52314 72.4349 11.4362 73.9829 14.5966 73.9829ZM33.6608 47.4805C39.9362 47.4805 45.1686 41.9185 45.1686 34.7908C45.1686 27.825 39.8963 22.4118 33.6608 22.4118C27.4175 22.4118 22.0964 27.9071 22.1286 34.8318C22.1286 41.9185 27.3609 47.4805 33.6608 47.4805Z" fill="url(#gradient1)"/>
  <path d="M3.64404 48.3049C4.18667 49.5755 5.67031 50.5154 7.29819 50.5154C12.6669 50.5154 16.0948 44.0546 16.0948 34.8396C16.0948 25.5757 12.6669 19.1394 7.29819 19.1394C5.67031 19.1394 4.18667 20.0626 3.64404 21.3332C3.3145 22.1931 4.16001 23.0142 4.94003 22.7079C5.4705 22.5526 5.76122 22.415 6.56137 22.415C9.94726 22.415 12.3565 28.1068 12.3565 34.8396C12.3565 41.5402 9.94726 47.2154 6.56137 47.2154C5.76122 47.2154 5.4705 47.1022 4.94003 46.9224C4.16001 46.6162 3.3145 47.445 3.64404 48.3049ZM63.6531 48.2971C63.9993 47.4372 63.1371 46.6084 62.3571 46.9146C61.8266 47.0944 61.5359 47.2076 60.7358 47.2076C57.3665 47.2076 54.9406 41.5324 54.9406 34.8318C54.9406 28.0991 57.3665 22.4072 60.7358 22.4072C61.5359 22.4072 61.8266 22.5448 62.3571 22.7002C63.1371 23.0064 63.9993 22.1853 63.6531 21.3254C63.1105 20.0549 61.6268 19.1316 59.999 19.1316C54.6302 19.1316 51.2023 25.5757 51.2023 34.8318C51.2023 44.0469 54.6302 50.5076 59.999 50.5076C61.6268 50.5076 63.1105 49.5677 63.6531 48.2971ZM47.1428 3.91064C46.2828 3.56445 45.4618 4.42661 45.7436 5.20663C45.9234 5.72045 46.061 6.03559 46.061 6.82797C46.061 10.1972 40.378 12.6231 33.6608 12.6231C26.9358 12.6231 21.2362 10.1972 21.2362 6.82797C21.2362 6.03559 21.3738 5.72045 21.5535 5.20663C21.8354 4.42661 21.0143 3.56445 20.1544 3.91064C18.8838 4.45327 17.9606 5.92026 17.9606 7.56479C17.9606 12.9413 24.4047 16.3614 33.6608 16.3614C42.8925 16.3614 49.3365 12.9413 49.3365 7.56479C49.3365 5.92026 48.4133 4.45327 47.1428 3.91064Z" fill="url(#gradient2)"/>
  <path d="M0.338134 43.5754C0.929588 44.239 1.82065 44.6762 2.81826 44.6762C5.95429 44.6762 8.37241 40.6912 8.37241 34.8396C8.37241 28.948 5.95429 24.9863 2.81826 24.9863C1.82065 24.9863 0.929588 25.408 0.338134 26.0549C-0.454149 26.9515 0.273779 28.1032 1.2058 27.7981C1.53207 27.6749 1.74404 27.6261 2.00595 27.6261C3.87153 27.6261 5.33311 30.8733 5.33311 34.8396C5.33311 38.7892 3.87153 42.0198 2.00595 42.0198C1.74404 42.0198 1.53207 41.9632 1.2058 41.8322C0.273779 41.5515-0.454149 42.6866 0.338134 43.5754ZM66.959 43.5677C67.7513 42.6788 67.04 41.536 66.108 41.8245C65.7651 41.9554 65.5531 42.0042 65.2912 42.0042C63.4256 42.0042 61.964 38.7815 61.964 34.8318C61.964 30.8577 63.4256 27.6183 65.2912 27.6183C65.5531 27.6183 65.7651 27.6672 66.108 27.7981C67.04 28.0877 67.7513 26.9437 66.959 26.0472C66.3676 25.4002 65.4843 24.9708 64.4866 24.9708C61.3429 24.9708 58.9247 28.9403 58.9247 34.8318C58.9247 40.6834 61.3429 44.6684 64.4866 44.6684C65.4843 44.6684 66.3676 44.2312 66.959 43.5677ZM42.421 0.604734C41.5245-0.170898 40.3805 0.523728 40.6701 1.45575C40.801 1.79867 40.8498 1.99399 40.8498 2.2559C40.8498 4.12148 37.6104 5.62412 33.6608 5.62412C29.6867 5.62412 26.4473 4.12148 26.4473 2.2559C26.4473 1.99399 26.4961 1.79867 26.6271 1.45575C26.9167 0.523728 25.7727-0.170898 24.8761 0.604734C24.237 1.19619 23.7997 2.08725 23.7997 3.08486C23.7997 6.20424 27.777 8.62235 33.6608 8.62235C39.5124 8.62235 43.4974 6.20424 43.4974 3.08486C43.4974 2.08725 43.0602 1.19619 42.421 0.604734Z" fill="url(#gradient3)"/>
 </g>
</svg>
